<svg width="17" height="23" viewBox="0 0 17 23" fill="none" xmlns="http://www.w3.org/2000/svg">
<g id="Group 904">
<path id="Vector" d="M14.6292 15.1666V8.83921C14.6292 5.66252 12.2603 3.03262 9.19381 2.61601V1.72549C9.19381 1.29325 8.84499 0.944336 8.41286 0.944336C7.98074 0.944336 7.63191 1.29325 7.63191 1.72549V2.58997C4.49771 2.94409 2.05595 5.61044 2.05595 8.83401V15.1614L0.166061 17.5673C-0.0161602 17.8017 -0.0526044 18.1245 0.0775534 18.3901C0.207711 18.6609 0.47844 18.8276 0.780406 18.8276H11.7866C12.2187 18.8276 12.5675 18.4787 12.5675 18.0464C12.5675 17.6142 12.2187 17.2653 11.7866 17.2653H2.38395L3.45125 15.9061C3.56058 15.7707 3.61785 15.5988 3.61785 15.4218V8.83921C3.61785 6.23536 5.73681 4.11062 8.34518 4.11062C10.9535 4.11062 13.0725 6.23015 13.0725 8.83921V15.4374C13.0725 15.6144 13.1298 15.7811 13.2391 15.9217L15.2956 18.5412C15.4518 18.7391 15.6809 18.838 15.91 18.838C16.0766 18.838 16.2484 18.7859 16.3941 18.6714C16.7325 18.4058 16.795 17.911 16.5243 17.5725L14.6292 15.1666Z" fill="#686B6E"/>
<path id="Vector_2" d="M10.3023 18.9526C9.87023 18.9526 9.5214 19.3016 9.5214 19.7338C9.5214 20.2858 9.07366 20.7337 8.51658 20.7337C7.95951 20.7337 7.51697 20.2858 7.51697 19.7338C7.51697 19.3016 7.16815 18.9526 6.73602 18.9526C6.3039 18.9526 5.95508 19.3016 5.95508 19.7338C5.95508 21.1503 7.10567 22.296 8.51658 22.296C9.9327 22.296 11.0833 21.1451 11.0833 19.7338C11.0833 19.3016 10.7345 18.9526 10.3023 18.9526Z" fill="#686B6E"/>
</g>
</svg>
