<svg width="28" height="22" viewBox="0 0 28 22" fill="none" xmlns="http://www.w3.org/2000/svg">
<g id="Clip path group" opacity="0.5">
<mask id="mask0_2583_14771" style="mask-type:luminance" maskUnits="userSpaceOnUse" x="0" y="0" width="28" height="22">
<g id="clip0_2497_15333">
<path id="Vector" d="M28 0.5H0V21.2472H28V0.5Z" fill="white"/>
</g>
</mask>
<g mask="url(#mask0_2583_14771)">
<g id="Group">
<path id="Vector_2" opacity="0.33" d="M6.70637 19.9717L6.70018 19.9614L6.67644 19.9263C5.93187 18.8306 5.70775 17.3662 5.59002 15.6922C5.55103 15.1315 5.71854 14.5758 6.06097 14.1301C6.40338 13.6844 6.89706 13.3794 7.44889 13.2725L7.29402 13.2829C6.60889 13.3308 5.92627 13.1596 5.34485 12.7941C4.76342 12.4286 4.31329 11.8876 4.05953 11.2494C4.05953 11.2494 3.10221 9.1138 2.6571 7.45836C2.15757 7.30792 1.63295 7.25909 1.11423 7.3148C0.946637 7.33825 0.78531 7.39449 0.639471 7.48035C0.493631 7.56616 0.366142 7.67991 0.264285 7.81507C0.162429 7.95017 0.0882085 8.10405 0.0458609 8.26791C0.00351359 8.43177 -0.0061328 8.60234 0.017484 8.76987C0.211634 10.1579 1.78136 13.0928 1.78136 13.0928C2.04954 13.6486 2.4873 14.1047 3.0315 14.3956C3.5757 14.6864 4.19823 14.7969 4.80928 14.7111L4.9487 14.6915C4.45998 14.8222 4.03595 15.1272 3.75651 15.5489C3.47707 15.9707 3.36152 16.48 3.43164 16.981C3.63818 18.4754 3.9356 19.7756 4.6709 20.7122L4.69465 20.7432L4.70085 20.7515C4.83979 20.9286 5.02282 21.066 5.23162 21.1501C5.44041 21.2342 5.66764 21.262 5.89052 21.2306C6.44707 21.1661 6.96105 20.901 7.33631 20.485C7.08122 20.3783 6.86247 20.2 6.70637 19.9717Z" fill="white"/>
<path id="Vector_3" opacity="0.66" d="M10.981 12.5209C10.9727 12.3949 10.9624 12.274 10.9521 12.1563V12.148C10.7662 10.0424 10.3066 8.9921 9.26877 7.6485C8.52316 6.68396 5.81434 4.64539 3.7644 4.78894C3.57655 4.80178 3.39308 4.85156 3.22449 4.93542C3.05591 5.01929 2.90553 5.13559 2.78197 5.27766C2.65841 5.41974 2.5641 5.5848 2.50443 5.76339C2.44476 5.94197 2.42092 6.13057 2.43426 6.31839C2.53753 7.86749 4.05459 11.2455 4.05459 11.2455C4.30813 11.8837 4.75802 12.4247 5.33926 12.7904C5.9205 13.1562 6.60294 13.3275 7.28801 13.2799L7.44294 13.2696C6.89111 13.3764 6.39743 13.6815 6.05501 14.1272C5.71256 14.5729 5.54505 15.1285 5.58404 15.6892C5.70177 17.3612 5.92586 18.8256 6.67049 19.9234L6.69423 19.9585L6.70041 19.9688C6.84164 20.1749 7.03431 20.3406 7.25931 20.4492C7.4843 20.5579 7.73379 20.6059 7.98305 20.5885C10.3469 20.4232 11.1969 17.8858 11.0068 13.2479C11.012 13.06 11.0058 12.8193 10.981 12.5209Z" fill="white"/>
<path id="Vector_4" d="M14.0003 10.9414C13.9569 8.59306 13.4767 7.3414 12.4306 5.77169C11.6787 4.645 8.83364 2.17578 6.55135 2.17578C6.34246 2.17578 6.13567 2.21692 5.9427 2.29684C5.74976 2.37676 5.57443 2.49391 5.42675 2.64159C5.27907 2.78927 5.16193 2.96459 5.082 3.15755C5.00208 3.3505 4.96094 3.55731 4.96094 3.76616C4.96094 5.49492 6.37472 9.35314 6.37472 9.35314C6.60647 10.0803 7.06346 10.7149 7.67957 11.1653C8.29575 11.6157 9.03915 11.8584 9.80232 11.8585H9.97272C9.35269 11.9342 8.78172 12.2341 8.36756 12.7017C7.95345 13.1693 7.72467 13.7723 7.72449 14.3969C7.72449 16.2558 7.85977 17.8989 8.60025 19.1712C8.60748 19.1856 8.61571 19.1991 8.62294 19.2125C8.62574 19.2164 8.62813 19.2205 8.63017 19.2249C8.76977 19.4652 8.97002 19.6646 9.21088 19.8033C9.45168 19.9419 9.72474 20.0149 10.0026 20.0149C12.6361 20.0149 13.8237 17.3205 13.9755 12.1663C14.0003 11.9546 14.0003 10.9435 14.0003 10.9414Z" fill="white"/>
<path id="Vector_5" opacity="0.33" d="M21.2943 19.9717L21.3005 19.9614L21.3242 19.9263C22.0688 18.8306 22.2929 17.3662 22.4106 15.6922C22.4496 15.1315 22.2821 14.5758 21.9397 14.1301C21.5972 13.6844 21.1036 13.3794 20.5518 13.2725L20.7066 13.2829C21.3918 13.3308 22.0744 13.1596 22.6558 12.7941C23.2372 12.4286 23.6873 11.8876 23.9411 11.2494C23.9411 11.2494 24.8984 9.1138 25.3436 7.45836C25.8431 7.30792 26.3677 7.25909 26.8864 7.3148C27.054 7.33825 27.2153 7.39449 27.3612 7.48035C27.507 7.56616 27.6345 7.67991 27.7363 7.81507C27.8382 7.95017 27.9124 8.10405 27.9548 8.26791C27.9971 8.43177 28.0068 8.60234 27.9831 8.76987C27.789 10.1579 26.2192 13.0928 26.2192 13.0928C25.9511 13.6486 25.5134 14.1047 24.9691 14.3956C24.4249 14.6864 23.8024 14.7969 23.1913 14.7111L23.0519 14.6915C23.5406 14.8222 23.9647 15.1272 24.2441 15.5489C24.5236 15.9707 24.6391 16.48 24.569 16.981C24.3624 18.4754 24.065 19.7756 23.3297 20.7122L23.306 20.7432L23.2998 20.7515C23.1608 20.9286 22.9778 21.066 22.769 21.1501C22.5602 21.2342 22.333 21.262 22.1101 21.2306C21.5536 21.1661 21.0396 20.901 20.6643 20.485C20.9194 20.3783 21.1382 20.2 21.2943 19.9717Z" fill="white"/>
<path id="Vector_6" opacity="0.66" d="M17.0202 12.5209C17.0285 12.3949 17.0388 12.274 17.0492 12.1563V12.148C17.2351 10.0424 17.6946 8.9921 18.7325 7.6485C19.4781 6.68396 22.1869 4.64539 24.2368 4.78894C24.4247 4.80178 24.6082 4.85156 24.7768 4.93542C24.9453 5.01929 25.0957 5.13559 25.2193 5.27766C25.3428 5.41974 25.4371 5.5848 25.4968 5.76339C25.5565 5.94197 25.5804 6.13057 25.567 6.31839C25.4637 7.86749 23.9467 11.2455 23.9467 11.2455C23.6931 11.8837 23.2432 12.4247 22.662 12.7904C22.0808 13.1562 21.3983 13.3275 20.7132 13.2799L20.5583 13.2696C21.1102 13.3764 21.6038 13.6815 21.9462 14.1272C22.2887 14.5729 22.4562 15.1285 22.4172 15.6892C22.2995 17.3612 22.0754 18.8256 21.3308 19.9234L21.307 19.9585L21.3008 19.9688C21.1596 20.1749 20.9669 20.3406 20.742 20.4492C20.517 20.5579 20.2675 20.6059 20.0182 20.5885C17.6543 20.4232 16.8044 17.8858 16.9944 13.2479C16.9893 13.06 16.9954 12.8193 17.0202 12.5209Z" fill="white"/>
<path id="Vector_7" d="M14.0005 10.9414C14.0438 8.59306 14.524 7.3414 15.5702 5.77169C16.322 4.645 19.1671 2.17578 21.4494 2.17578C21.6583 2.17578 21.8651 2.21692 22.0581 2.29684C22.251 2.37676 22.4263 2.49391 22.574 2.64159C22.7217 2.78927 22.8389 2.96459 22.9188 3.15755C22.9987 3.3505 23.0398 3.55731 23.0398 3.76616C23.0398 5.49492 21.6261 9.35314 21.6261 9.35314C21.3943 10.0803 20.9373 10.7149 20.3211 11.1653C19.705 11.6157 18.9616 11.8584 18.1984 11.8585H18.0281C18.6481 11.9342 19.219 12.2341 19.6332 12.7017C20.0473 13.1693 20.2761 13.7723 20.2763 14.3969C20.2763 16.2558 20.141 17.8989 19.4005 19.1712C19.3933 19.1856 19.3851 19.1991 19.3778 19.2125C19.375 19.2164 19.3726 19.2205 19.3706 19.2249C19.231 19.4652 19.0307 19.6646 18.7899 19.8033C18.549 19.9419 18.276 20.0149 17.9981 20.0149C15.3647 20.0149 14.1771 17.3205 14.0252 12.1663C14.0005 11.9546 14.0005 10.9435 14.0005 10.9414Z" fill="white"/>
<path id="Vector_8" d="M16.1268 1.4501C16.1268 1.4501 14.9299 1.16094 14.0005 0.5C13.071 1.16404 11.8741 1.4501 11.8741 1.4501C11.8741 1.4501 11.6872 2.41568 12.281 3.60434C12.6876 4.38743 13.2775 5.0606 14.0005 5.5665C14.7234 5.0606 15.3133 4.38743 15.7199 3.60434C16.3137 2.41568 16.1268 1.4501 16.1268 1.4501Z" fill="white"/>
</g>
</g>
</g>
</svg>
