<svg width="100" height="125" viewBox="0 0 100 125" fill="none" xmlns="http://www.w3.org/2000/svg">
<g id="noun-upload-1016084 1">
<g id="Group">
<g id="Group_2">
<g id="Group_3">
<path id="Vector" d="M47.8023 68.6729H36.6141C35.4154 68.6729 34.4664 69.6218 34.4664 70.8206C34.4664 72.0193 35.4154 72.9683 36.6141 72.9683H45.7045V85.7549H6.74553V72.9683H15.836C17.0347 72.9683 17.9837 72.0193 17.9837 70.8206C17.9837 69.6218 17.0347 68.6729 15.836 68.6729H4.64773C3.449 68.6729 2.5 69.6218 2.5 70.8206V87.8526C2.5 89.0514 3.449 90.0004 4.64773 90.0004H47.8523C49.051 90.0004 50 89.0514 50 87.8526V70.8206C49.9501 69.6218 49.0011 68.6729 47.8023 68.6729Z" fill="#B6F09C"/>
<path id="Vector_2" d="M18.8825 62.6289L24.127 57.3845V78.4123C24.127 79.6111 25.076 80.5601 26.2748 80.5601C27.4735 80.5601 28.4225 79.6111 28.4225 78.4123V57.3345L33.7169 62.6289C34.566 63.4781 35.9146 63.4781 36.7138 62.6289C37.5629 61.7798 37.5629 60.4313 36.7138 59.6321L27.8231 50.7415C27.4236 50.3419 26.8741 50.1421 26.3247 50.1421C25.7753 50.1421 25.2259 50.3419 24.8263 50.7415L15.9357 59.6321C15.0866 60.4812 15.0866 61.8298 15.9357 62.6289C16.6849 63.4281 18.0334 63.4281 18.8825 62.6289Z" fill="#B6F09C"/>
</g>
</g>
</g>
</g>
</svg>
